<?xml version="1.0" standalone="no"?>
<!DOCTYPE svg PUBLIC "-//W3C//DTD SVG 20010904//EN"
 "http://www.w3.org/TR/2001/REC-SVG-20010904/DTD/svg10.dtd">
<svg version="1.0" xmlns="http://www.w3.org/2000/svg"
 width="778.000000pt" height="778.000000pt" viewBox="0 0 778.000000 778.000000"
 preserveAspectRatio="xMidYMid meet">
<metadata>
Created by potrace 1.14, written by Peter Selinger 2001-2017
</metadata>
<g transform="translate(0.000000,778.000000) scale(0.100000,-0.100000)"
fill="#000000" stroke="none">
<path d="M3754 6316 c-72 -72 -946 -943 -1942 -1937 l-1811 -1805 262 -262
262 -262 1679 1675 c924 921 1683 1675 1686 1675 4 0 762 -754 1686 -1676
l1679 -1675 258 262 258 263 -284 280 c-157 155 -519 513 -806 796 l-521 514
0 916 0 915 -283 -2 c-155 -1 -302 -2 -328 -2 l-45 -1 0 -555 1 -554 -64 62
c-35 34 -145 143 -246 242 -100 99 -428 423 -729 720 -301 297 -555 540 -564
541 -10 1 -76 -58 -148 -130z"/>
<path d="M3217 3698 c-7 -4 -11 -346 -12 -1175 0 -642 1 -1174 3 -1180 3 -10
152 -13 698 -13 l694 0 0 63 c6 863 3 2307 -5 2308 -59 5 -1370 2 -1378 -3z"/>
</g>
</svg>
